<?xml version="1.0" standalone="no"?>
<!DOCTYPE svg PUBLIC "-//W3C//DTD SVG 20010904//EN"
 "http://www.w3.org/TR/2001/REC-SVG-20010904/DTD/svg10.dtd">
<svg version="1.0" xmlns="http://www.w3.org/2000/svg"
 width="260.000000pt" height="260.000000pt" viewBox="0 0 260.000000 260.000000"
 preserveAspectRatio="xMidYMid meet">
<metadata>
Created by potrace 1.11, written by Peter Selinger 2001-2013
</metadata>
<g transform="translate(0.000000,260.000000) scale(0.100000,-0.100000)"
fill="#000000" stroke="none">
<path d="M790 2235 l0 -85 -85 0 -85 0 0 -85 0 -85 -85 0 -85 0 0 -85 0 -85
-170 0 -170 0 0 -85 0 -85 170 0 170 0 0 85 0 85 170 0 170 0 0 85 0 85 680 0
680 0 0 -85 0 -85 85 0 85 0 0 85 0 85 -85 0 -85 0 0 85 0 85 -85 0 -85 0 0
85 0 85 -595 0 -595 0 0 -85z"/>
<path d="M790 1385 l0 -255 255 0 255 0 0 85 0 85 85 0 85 0 0 -85 0 -85 255
0 255 0 0 85 0 85 170 0 170 0 0 85 0 85 -170 0 -170 0 0 85 0 85 -255 0 -255
0 0 -85 0 -85 -85 0 -85 0 0 85 0 85 -255 0 -255 0 0 -255z m340 0 l0 -85 -85
0 -85 0 0 85 0 85 85 0 85 0 0 -85z m680 0 l0 -85 -85 0 -85 0 0 85 0 85 85 0
85 0 0 -85z"/>
</g>
</svg>
