<?xml version="1.0" standalone="no"?>
<!DOCTYPE svg PUBLIC "-//W3C//DTD SVG 20010904//EN"
 "http://www.w3.org/TR/2001/REC-SVG-20010904/DTD/svg10.dtd">
<svg version="1.0" xmlns="http://www.w3.org/2000/svg"
 width="622.000000pt" height="622.000000pt" viewBox="0 0 622.000000 622.000000"
 preserveAspectRatio="xMidYMid meet">
<metadata>
Created by potrace 1.14, written by Peter Selinger 2001-2017
</metadata>
<g transform="translate(0.000000,622.000000) scale(0.100000,-0.100000)"
fill="#000000" stroke="none">
<path d="M3475 5699 c-27 -5 -76 -7 -107 -5 -38 4 -68 1 -92 -9 -22 -9 -74
-15 -143 -16 -64 -2 -118 -8 -133 -15 -14 -7 -67 -18 -119 -24 -52 -6 -102
-15 -112 -20 -10 -6 -26 -10 -36 -10 -25 0 -205 -92 -238 -122 -14 -12 -50
-47 -80 -76 -57 -55 -78 -60 -113 -26 -7 8 -20 14 -27 14 -8 0 -16 8 -20 18
-5 18 -44 42 -67 42 -5 0 -23 11 -40 25 -16 14 -37 25 -46 25 -18 0 -132 55
-142 68 -18 26 -67 52 -96 52 -35 0 -91 11 -180 36 -28 8 -76 14 -107 14 -31
0 -66 4 -79 9 -23 9 -175 15 -288 12 -30 -1 -66 -9 -78 -17 -16 -10 -48 -16
-93 -16 -50 0 -75 -4 -91 -17 -13 -10 -44 -21 -71 -24 -26 -4 -61 -13 -77 -22
-16 -8 -40 -15 -53 -15 -44 0 -241 -89 -250 -113 -3 -7 -34 -28 -69 -45 -36
-17 -82 -48 -102 -67 -21 -19 -41 -35 -46 -35 -5 0 -11 -8 -15 -18 -3 -11 -17
-24 -30 -30 -14 -7 -29 -22 -34 -34 -5 -13 -15 -38 -21 -55 -7 -18 -21 -42
-31 -54 -10 -12 -19 -29 -19 -39 0 -9 -6 -22 -12 -28 -8 -8 -13 -45 -14 -100
0 -48 -6 -103 -14 -123 -15 -42 -6 -142 16 -163 8 -8 14 -28 14 -45 0 -58 47
-178 83 -213 19 -18 37 -45 41 -60 4 -18 15 -30 30 -34 14 -3 38 -29 61 -65
28 -42 48 -62 72 -70 18 -6 36 -16 40 -23 9 -14 125 -67 189 -86 23 -7 50 -10
60 -6 10 3 72 8 138 11 128 6 165 18 185 62 20 44 13 70 -32 115 -37 37 -50
43 -102 50 -129 17 -169 25 -173 36 -2 6 -18 16 -36 22 -19 6 -40 23 -51 43
-22 38 -33 47 -62 47 -16 0 -26 11 -39 45 -11 30 -24 47 -39 51 -15 4 -26 18
-33 42 -7 20 -23 50 -37 66 -34 39 -37 58 -32 157 6 112 23 178 56 211 15 14
36 43 46 62 11 20 26 36 33 36 21 0 71 33 77 50 3 9 20 24 37 35 18 10 37 24
41 32 4 7 17 13 28 13 20 0 59 17 69 30 12 15 79 50 98 50 11 0 27 7 36 15 8
8 24 15 35 15 11 0 32 5 48 11 15 6 55 12 88 14 33 2 87 8 120 14 69 12 229
15 295 5 54 -8 149 -50 156 -69 6 -15 56 -35 88 -35 43 0 95 -21 101 -40 4
-12 21 -24 46 -30 24 -7 46 -21 56 -38 10 -15 22 -30 28 -34 5 -4 18 -13 28
-20 11 -7 31 -23 45 -36 15 -13 48 -37 75 -54 27 -18 47 -39 47 -49 0 -25 136
-159 161 -159 4 0 10 -11 13 -25 3 -13 15 -32 25 -42 10 -10 21 -30 25 -45 3
-15 15 -29 25 -33 11 -3 27 -25 36 -50 12 -31 25 -47 44 -53 20 -7 30 -21 39
-50 7 -22 23 -47 36 -55 13 -9 26 -29 29 -46 10 -49 46 -61 191 -61 139 0 150
4 162 67 8 41 -2 181 -16 234 -6 21 -17 40 -26 43 -8 3 -22 22 -30 43 -9 20
-27 45 -40 55 -13 11 -24 30 -24 43 0 26 -24 55 -44 55 -8 0 -16 14 -20 30 -4
22 -15 35 -43 48 -21 9 -42 23 -46 30 -4 6 -19 24 -33 39 -13 14 -24 29 -24
33 0 6 -24 35 -77 92 -13 14 -13 19 -2 30 31 29 106 75 132 82 15 3 27 10 27
15 0 5 14 14 30 21 17 7 30 16 30 21 0 5 18 9 39 9 22 0 46 7 55 15 8 8 32 15
53 15 21 0 56 6 78 12 22 6 83 12 135 14 52 1 165 5 250 9 255 11 550 5 576
-12 12 -7 39 -14 60 -13 63 0 235 -30 304 -54 25 -9 51 -16 58 -16 7 0 20 -7
28 -15 9 -8 32 -15 53 -15 26 0 47 -8 67 -25 16 -14 46 -30 66 -35 48 -14 106
-50 113 -73 7 -20 55 -47 82 -47 10 0 26 -9 36 -20 9 -11 28 -20 42 -20 15 0
25 -6 25 -15 0 -21 35 -50 105 -87 53 -27 64 -38 76 -72 11 -33 21 -43 48 -51
22 -6 43 -23 59 -47 13 -21 29 -38 33 -38 5 0 9 -7 9 -15 0 -8 8 -23 18 -33 9
-9 23 -30 29 -45 9 -18 23 -29 43 -33 16 -4 30 -13 30 -20 0 -7 10 -23 23 -34
18 -18 22 -30 20 -76 -3 -49 0 -57 29 -84 17 -17 35 -30 39 -30 5 0 9 -11 9
-24 0 -14 6 -31 13 -38 25 -25 33 -53 29 -103 -3 -43 -4 -89 -3 -137 1 -58
-13 -149 -27 -175 -14 -29 -15 -37 -3 -65 24 -59 25 -85 2 -114 -12 -15 -21
-38 -21 -51 0 -41 30 -131 45 -137 8 -3 15 -18 15 -33 0 -15 4 -33 8 -39 11
-17 62 -40 103 -48 20 -3 49 -18 63 -31 52 -48 95 -58 132 -30 10 8 33 15 51
15 38 0 59 19 68 62 4 18 28 55 52 81 41 44 44 51 38 85 -6 34 -6 80 -2 287 1
45 8 90 15 104 14 24 12 51 -8 131 -6 25 -11 61 -11 81 1 22 -6 46 -19 62 -11
14 -20 35 -20 48 0 23 -39 89 -52 89 -5 0 -8 11 -8 24 0 14 -8 32 -17 42 -11
11 -16 29 -14 50 4 47 -13 70 -63 89 -36 14 -55 31 -97 91 -30 41 -57 74 -62
74 -4 0 -16 20 -27 44 -10 25 -31 53 -47 63 -40 26 -58 42 -132 119 -27 28
-54 61 -61 73 -6 12 -35 32 -65 45 -33 15 -56 32 -60 45 -4 13 -18 24 -35 27
-16 4 -32 16 -38 29 -7 15 -28 29 -61 40 -28 9 -51 21 -51 26 0 6 -15 16 -34
24 -19 8 -43 26 -53 41 -14 19 -33 29 -71 35 -33 6 -61 19 -77 34 -13 14 -31
25 -40 25 -8 0 -15 4 -15 9 0 4 -26 17 -57 29 -101 35 -128 47 -140 58 -7 7
-45 15 -85 19 -39 4 -78 14 -86 21 -7 8 -32 14 -55 14 -23 1 -62 5 -87 11 -85
20 -155 31 -210 34 -30 1 -86 8 -125 15 -38 6 -113 10 -165 9 -52 -2 -126 0
-165 3 -38 4 -92 2 -120 -3z"/>
<path d="M985 3469 c-31 -7 -61 -17 -150 -49 -27 -10 -59 -21 -71 -24 -12 -4
-26 -17 -32 -30 -6 -13 -19 -27 -29 -30 -10 -4 -29 -22 -43 -41 -14 -19 -37
-39 -52 -46 -16 -6 -28 -14 -28 -18 0 -4 -18 -31 -41 -61 -52 -69 -119 -184
-119 -204 0 -8 -11 -32 -25 -52 -27 -40 -33 -60 -64 -199 -38 -175 -42 -217
-31 -274 5 -29 10 -90 10 -135 0 -56 5 -88 15 -103 8 -12 21 -49 29 -84 8 -34
22 -67 31 -71 8 -5 15 -17 15 -27 0 -9 16 -35 35 -57 19 -21 35 -45 35 -52 0
-14 77 -92 91 -92 19 0 89 -53 94 -71 4 -11 22 -23 48 -29 72 -19 159 -50 181
-66 14 -10 50 -14 121 -14 61 -1 116 -7 140 -15 49 -18 99 -19 128 -3 12 6 67
15 121 19 76 6 106 13 127 28 16 12 33 21 39 21 19 0 130 60 130 70 0 6 14 10
30 10 21 0 41 10 64 33 41 38 77 67 87 67 10 0 59 86 59 103 0 7 11 20 25 27
14 8 28 25 32 38 3 14 14 33 24 43 12 12 19 33 19 59 0 21 6 59 14 82 18 56
27 130 31 247 4 103 4 103 75 128 19 7 43 13 52 13 9 0 23 7 32 15 21 22 155
31 179 13 16 -12 17 -20 7 -80 -5 -37 -8 -115 -5 -175 4 -87 9 -113 25 -135
13 -17 20 -43 20 -70 0 -24 6 -52 13 -63 7 -11 23 -50 35 -87 12 -37 30 -76
39 -87 10 -10 27 -30 38 -45 44 -57 63 -73 110 -97 27 -13 57 -32 67 -42 10
-9 21 -17 26 -17 4 0 22 -14 40 -30 18 -17 44 -30 57 -30 13 0 25 -5 27 -11 2
-7 33 -16 68 -21 35 -4 75 -16 89 -25 21 -14 51 -18 161 -19 74 0 149 -4 166
-8 22 -6 35 -4 46 7 8 8 50 22 93 31 71 15 145 49 145 68 0 7 29 16 102 32 15
3 30 15 33 26 3 11 13 20 21 20 8 0 27 13 43 29 15 16 38 32 50 36 11 3 21 11
21 16 0 12 78 89 90 89 4 0 13 14 21 31 7 18 23 43 36 57 13 14 23 36 23 48 0
13 4 24 9 24 15 0 31 59 31 112 0 27 9 70 19 96 21 53 46 207 39 244 -4 23 0
25 61 37 123 25 415 8 451 -25 8 -8 26 -22 39 -32 23 -18 24 -25 26 -143 2
-122 10 -155 41 -186 7 -7 14 -16 16 -20 5 -13 108 -63 128 -63 38 0 66 23
109 86 l44 65 -6 114 c-5 97 -10 122 -34 167 -15 29 -32 56 -39 60 -6 4 -14
18 -18 31 -3 13 -17 29 -31 37 -13 7 -27 21 -30 31 -3 9 -20 23 -37 30 -17 7
-43 23 -58 35 -29 25 -102 54 -135 54 -12 0 -26 5 -33 12 -26 26 -180 37 -362
25 -52 -4 -106 -7 -120 -8 -13 0 -26 4 -28 10 -2 6 -9 17 -16 24 -25 26 -46
67 -46 90 0 13 -7 32 -15 43 -8 10 -15 25 -15 33 0 26 -64 110 -92 122 -15 6
-30 19 -33 28 -10 31 -297 164 -390 180 -87 15 -221 20 -285 11 -33 -5 -71 -4
-96 3 -35 9 -46 8 -68 -6 -17 -11 -47 -17 -88 -17 -46 -1 -76 -7 -113 -25 -27
-14 -56 -25 -63 -25 -7 0 -24 -11 -38 -25 -14 -14 -38 -32 -54 -40 -17 -9 -30
-19 -30 -23 0 -5 -16 -25 -35 -46 -19 -21 -35 -42 -35 -46 0 -3 -11 -13 -25
-20 -13 -7 -29 -26 -34 -42 -6 -15 -17 -31 -25 -34 -9 -3 -23 -31 -33 -62 -9
-32 -25 -65 -34 -74 -9 -9 -19 -23 -22 -30 -3 -10 -11 -9 -35 5 -37 21 -178
26 -257 9 -82 -18 -156 -41 -171 -53 -11 -9 -14 -8 -14 7 0 11 -22 62 -49 114
-27 52 -61 120 -77 151 -21 45 -37 63 -76 85 -27 16 -66 50 -86 76 -19 26 -48
52 -64 57 -15 6 -28 14 -28 19 0 15 -89 44 -115 38 -15 -4 -38 0 -58 11 -37
19 -140 44 -212 50 -99 8 -261 10 -290 2z m263 -316 c7 -7 25 -13 38 -13 14 0
37 -6 52 -14 15 -7 47 -16 71 -20 62 -9 157 -62 211 -116 33 -33 59 -76 97
-160 48 -107 52 -122 57 -213 3 -54 9 -103 12 -108 3 -6 3 -53 -1 -105 -6 -78
-11 -100 -29 -119 -12 -13 -28 -46 -36 -74 -9 -32 -20 -53 -32 -57 -10 -3 -18
-9 -18 -14 0 -16 -83 -95 -112 -108 -16 -6 -28 -16 -28 -22 0 -16 -71 -47
-125 -56 -28 -4 -66 -16 -87 -26 -21 -11 -75 -23 -130 -29 -160 -18 -219 -13
-258 21 -13 11 -36 20 -51 20 -18 0 -37 10 -51 25 -24 27 -40 43 -79 79 -35
32 -69 78 -69 94 0 7 -16 42 -35 78 -19 35 -35 77 -35 92 0 15 -7 38 -16 50
-29 42 1 310 47 426 45 112 86 192 117 230 18 22 42 57 53 78 12 24 27 38 38
38 10 0 38 9 62 20 26 12 66 20 99 20 30 0 61 4 67 8 18 11 155 -9 171 -25z
m2376 -35 c46 -10 69 -22 99 -50 21 -21 44 -38 52 -38 7 0 15 -12 18 -27 3
-16 18 -41 34 -58 35 -36 53 -76 53 -115 0 -16 6 -35 14 -43 20 -20 42 -216
35 -307 -7 -72 -44 -176 -75 -207 -7 -7 -16 -27 -19 -45 -4 -17 -11 -36 -16
-42 -5 -6 -23 -32 -40 -58 -17 -26 -39 -50 -50 -53 -10 -4 -19 -10 -19 -16 0
-5 -16 -15 -35 -23 -20 -9 -51 -31 -69 -51 -26 -27 -46 -38 -83 -44 -26 -5
-73 -18 -102 -29 -34 -12 -68 -18 -88 -15 -22 4 -42 0 -59 -12 -30 -20 -106
-15 -155 11 -15 7 -45 14 -65 14 -52 0 -121 35 -128 65 -3 13 -15 27 -26 30
-11 3 -20 10 -20 14 0 5 -10 19 -22 33 -52 57 -78 95 -89 126 -6 17 -14 32
-18 32 -5 0 -12 28 -16 63 -24 215 -24 218 0 352 13 72 31 150 40 175 34 92
100 212 139 253 l41 42 105 3 c58 1 121 3 140 2 19 0 46 5 60 10 66 27 256 30
364 8z"/>
<path d="M787 2656 c-56 -52 -73 -155 -38 -225 21 -40 40 -51 126 -72 46 -10
55 -10 91 9 34 17 45 31 64 76 16 41 20 66 16 92 -12 62 -26 80 -89 112 -78
40 -133 42 -170 8z"/>
<path d="M2968 2638 c-7 -7 -31 -22 -52 -33 -46 -24 -62 -46 -70 -104 -10 -65
6 -101 61 -136 43 -27 56 -30 128 -30 44 0 92 3 106 7 25 7 47 44 64 106 10
36 -5 119 -25 142 -11 12 -20 26 -22 31 -8 25 -166 39 -190 17z"/>
<path d="M5289 3398 c-7 -8 -30 -12 -60 -10 -41 3 -52 0 -74 -22 -22 -22 -25
-34 -25 -91 0 -61 3 -69 30 -97 24 -23 37 -29 60 -26 17 3 30 1 30 -4 0 -4 20
-28 45 -54 25 -25 45 -54 45 -65 0 -30 26 -86 53 -113 13 -13 27 -37 31 -53
15 -62 28 -131 35 -189 4 -34 12 -68 18 -75 14 -19 9 -456 -6 -525 -8 -33 -9
-74 -3 -120 6 -51 5 -74 -4 -81 -7 -7 -14 -63 -19 -136 -8 -149 8 -310 35
-337 9 -9 20 -29 24 -43 3 -14 12 -32 20 -40 8 -8 19 -33 26 -55 6 -23 15 -42
19 -42 5 0 11 -13 14 -29 4 -18 14 -32 27 -36 11 -3 20 -15 20 -25 0 -18 65
-90 80 -90 5 0 11 -11 14 -24 3 -14 16 -28 28 -32 24 -7 27 -9 78 -54 41 -36
46 -37 169 -44 88 -5 94 -4 117 19 22 22 24 33 24 110 0 74 -4 96 -30 155 -16
38 -30 75 -30 84 0 8 -11 27 -25 42 -14 15 -25 30 -25 35 0 4 -9 11 -20 14
-16 5 -20 15 -20 46 0 22 -8 54 -17 72 -16 31 -34 118 -53 257 -5 36 -11 79
-15 95 -3 17 -10 91 -15 165 -4 74 -10 162 -13 195 -3 33 -1 93 4 134 5 45 5
87 0 105 -5 17 -14 73 -20 123 -5 51 -16 105 -24 120 -8 16 -20 48 -27 73 -6
25 -16 59 -22 75 -5 17 -13 47 -18 67 -4 21 -12 43 -17 50 -6 7 -13 27 -16 43
-11 59 -26 108 -35 114 -5 3 -14 23 -20 43 -6 22 -28 56 -51 78 -23 23 -41 44
-41 49 0 19 -103 111 -151 135 -57 28 -130 35 -150 14z"/>
<path d="M2448 1798 c-21 -17 -68 -118 -68 -147 0 -36 -40 -86 -78 -98 -45
-14 -86 3 -127 51 -16 20 -45 52 -62 72 -18 20 -33 40 -33 45 0 23 -42 49 -80
49 -59 0 -80 -26 -80 -96 0 -83 25 -146 80 -202 26 -26 52 -57 58 -69 19 -35
188 -81 301 -82 46 -1 98 24 137 64 11 12 25 24 30 26 5 2 28 31 51 64 29 43
44 78 53 124 11 61 10 67 -15 127 -15 35 -34 65 -43 68 -50 14 -108 16 -124 4z"/>
</g>
</svg>
